
<svg class="nav_home_img" height="57" version="1.1" id="Layer_1" xmlns="http://www.w3.org/2000/svg" xmlns:xlink="http://www.w3.org/1999/xlink" x="0px" y="0px" viewBox="0 0 458 105.7" style="enable-background:new 0 0 458 105.7;" xml:space="preserve">
<title>DTE_Energy_Logo</title>
<path class="dte-logo-svg" d="M52.2,33.3L51.6,34c0,0,4-0.2,4,0.2c-0.5,0.4-1,0.7-1.6,0.8l-4,1.5c0.2,0.5,0.6,0.8,1.1,0.9
  c0.6,0,1.2-0.1,1.8-0.4c0.7,0.2,1.5,0.4,2.2,0.7L54.9,39l2.1-0.4l-0.1-2.2l2.8-1.4c0-0.6,0-1.2-0.2-1.8c-0.5-0.3-1.1-0.5-1.8-0.6
  L52.2,33.3z"></path>
<path class="dte-logo-svg" d="M74.7,4.1l-5.2,13.8c0.8-3.7-1-7.5-4.3-9.3C61,6.1,54.9,6.3,49.4,9.8c1.8-0.5,3.8-0.7,5.7-0.5
  c1.7,0.1,3.3,0.5,4.8,1.2c1.6,0.7,2.8,1.9,3.5,3.5c0.5,1.1,0.6,2.2,0.4,3.4c-0.1,1-0.6,1.9-1.2,2.7c-0.3,0.3-0.7,0.5-1.1,0.6
  c0.3-1,0.3-2,0-3c-0.9-2.9-3.7-4.7-6.7-4.5c-3.3-0.1-6.5,1.7-8.2,4.5c3.4-2.7,8.6-1.5,8.7,1.6c0.1,2-4.1,3.3-7.8,1.7
  c-4.3-1.8-7.7-2.8-11.2-2.6c-0.9,0.1-1.8,0.2-2.7,0.4c-4.4,1-8,3.2-9.2,7.2c0.3-0.6,1.5-3.1,7-3.5c1.3-0.1,2.6-0.1,3.9,0
  c4.8,0.2,8,3.2,11.4,3.7c3.3,0.5,5.2,0.1,7.1-1.8c1.6,3,5.3,4.3,8.4,3c0.3,1.6,0.6,3.2,0.7,4.8c0.1,1.7-1.4,2.2-1.4,3.8
  c0.1,1.8,3.8,11.1,3.8,11.1c0.7,0.7,0.7,1.8-0.6,2.7c-0.5,0.3-1.1,0.4-1.7,0.4c0-0.3-0.1-0.5-0.2-0.7c-1-0.5-3.2-0.5-4.1,0.4
  l0.4,0.7c0.9-0.5,1.9-0.5,2.8-0.1c-0.3,0.2-0.6,0.6-0.8,0.9c-0.3,1-0.2,2.1,0.2,3l-0.6,1c-0.1-0.1-0.3-0.3-0.4-0.4
  c-0.3-0.2-0.6-0.3-1-0.3L54.8,55l-0.6,0.9c0,0,3.5,0.5,4.2,0.7c1.1,0.4,1.6,1.6,1.2,2.6c-0.1,0.2-0.2,0.4-0.3,0.6
  c-0.9,0.3-1.5,1.1-1.6,2c0.2,0.6,1.4,2.1,1.2,3.6c-0.4,2.5-2.9,3.4-4.6,3.4c-0.4,0-0.7-0.1-1.1-0.2l-13.4-2.7L4.6,92.2L39.8,71
  l-29.1,29.2l33.7-27.4l-23.9,31.9L49.7,73l-17.7,32.7l23.1-33.5L45,104.4l15.8-34L58,101.1l8.1-33l5.6,27.5l-0.4-30.3l14,23.1
  l-8.8-26.6L98.3,79L81.1,57.9l29.4,9.6L85.4,53.6l35,1.3L88.9,49l39.2-7.2L91.8,44l40.1-15l-38.3,9.9l38.1-21.4L94.1,34l32.7-26
  L92.4,30l26.2-27.7L89.2,27.2L107.7,0L84.5,25.9L95.9,0L78.9,26l5.6-24L72.3,27.7L74.7,4.1z"></path>
<path class="dte-logo-svg" d="M18.5,49.2c6.6,2.4,11.8-0.1,12.4-4.8c2.9,0.5,5.8-0.2,8.1-2c3-2.3,3.1-5.2,2-8.6c2.6-0.9,5.8-3,6.9-5.5
  c-2.7,2-6.8,2.4-11.5,2c-3.4-0.3-7-1.7-11-2.9c-1-0.3-2-0.6-3.1-0.9c-7.5-2-13.7-1.3-17.7,0.8c-3.7,2-5,5-4.6,7.7
  c2.1-5.9,11.2-6.1,20-3.2l1.2,0.4c6,1.9,11.8,3.6,16.1,2.5c-0.2,2.8-2.7,4.6-6.3,4.2c-2.3-0.3-4.4-1.3-7.4-1.5
  c-4.6-0.4-8.2,1.1-9.4,4.7c2.6-2.8,11.6-2.6,10.8,1.7c-0.5,2-3.3,1.8-5.2,1.4c-2.3-0.7-4.8-0.9-7.3-0.6c-4.2,0.5-5.5,3-5.7,4.4
  C8.5,47.4,10.4,46.3,18.5,49.2"></path>
<path class="dte-logo-svg" d="M43,13c1-1,2.1-1.9,3.2-2.6c-5-2-10.3-3-15.6-2.9c-8.6,0.4-15.5,4.4-18.6,10.4c2.5-2.5,7-4.5,10.9-5.5
  c6.2-1.5,12.7-0.9,18.6,1.6l0.5,0.2C42.4,13.7,42.7,13.3,43,13"></path>
<path class="dte-logo-svg" d="M163.5,26h1.4c1.8-0.2,3.5,0.7,4.4,2.2c0.9,1.5,1.2,4,1.2,7.4s-0.3,5.9-1.2,7.4c-0.9,1.5-2.7,2.4-4.4,2.2h-1.4
  V26z M149.8,53.3h17.4c10.9,0,17.8-6.6,17.8-17.3c0-10.5-4.5-18-18.6-18h-16.6V53.3z"></path>
<polygon class="dte-logo-svg" points="195.4,53.3 209.4,53.3 209.4,27.5 218.1,27.5 218.1,18 186.7,18 186.7,27.5 195.4,27.5 "></polygon>
<polygon class="dte-logo-svg" points="221,53.3 248.2,53.3 248.2,44.1 234.4,44.1 234.4,40.2 246.8,40.2 246.8,31 234.4,31 234.4,27.2 
  247.8,27.2 247.8,18 221,18 "></polygon>
<polygon class="dte-logo-svg" points="268.5,53.3 295.8,53.3 295.8,44.1 281.9,44.1 281.9,40.2 294.3,40.2 294.3,31 281.9,31 281.9,27.2 
  295.4,27.2 295.4,18 268.5,18 "></polygon>
<path class="dte-logo-svg" d="M299.6,53.3h11.8V38c0-2,1-2.7,2.4-2.7s2.1,1,2.1,2.8v15.2h11.8V37c0-6.5-3.6-9-8.5-9c-3.2-0.1-6.2,1.6-7.7,4.5
  h-0.1l-0.3-3.7h-11.5V53.3z"></path>
<path class="dte-logo-svg" d="M342.4,38v-0.4c0-2.3,1.3-3.6,3.2-3.6s3.1,1.2,3.1,3.6V38L342.4,38L342.4,38z M348.6,45.5
  c-0.2,1.5-1.4,2.6-2.9,2.5c-2.4,0-3.3-1.2-3.3-4.1v-0.7h16.9v-1.7c0-8.8-4.5-13.5-13.7-13.5c-8.8,0-14.5,4.4-14.5,12.9
  c0,9.9,6.5,13.2,13.6,13.2c9.2,0,13.5-3,14.3-8.6L348.6,45.5L348.6,45.5z"></path>
<path class="dte-logo-svg" d="M362.6,53.3h11.8V40.5c-0.2-1.5,1-2.9,2.5-3.1c0.2,0,0.3,0,0.5,0c1.7,0,3.3,0.2,4.9,0.7v-8.9
  c-1-0.5-2-0.7-3.1-0.7c-1.5,0-3.1,0.8-4.9,3l-0.3-2.7h-11.5V53.3z"></path>
<path class="dte-logo-svg" d="M403.3,52.8c0,3.1-1,4.2-3.1,4.2c-0.7,0-1.4-0.2-1.9-0.5c-0.4-0.4-0.7-0.9-0.6-1.4h-11.6
  c0.5,5,3.8,8.3,13.4,8.3c8.8,0,14.8-2.2,14.8-12.2V28.8h-11.2l-0.2,2.7h-0.1c-1.6-2.5-4.1-3.4-7-3.4C389.7,28,385,32,385,41.2
  c0,8.9,5.7,11.7,10.6,11.7c2.7,0,5.8-0.6,7.6-3.2h0.1V52.8z M400,46.2c-2.6,0-2.7-2-2.7-4.9c0-2.7,0-6.3,2.9-6.3s2.8,2.8,2.8,5.7
  S403,46.2,400,46.2"></path>
<polygon class="dte-logo-svg" points="423.9,62.7 436.7,62.7 448.3,28.8 436.5,28.8 433.2,42.3 433.2,42.3 429.7,28.8 417.2,28.8 427.1,54.1 
  "></polygon>
<path class="dte-logo-svg" d="M453.9,31.9v-1.2h0.8c0.4,0,0.8,0.1,0.8,0.6s-0.4,0.6-0.9,0.6H453.9L453.9,31.9z M453.9,32.4h0.7l1,1.7h0.7
  l-1.1-1.7c0.6,0,1-0.4,1-1c0,0,0,0,0-0.1c0-0.8-0.5-1.1-1.4-1.1h-1.5v3.9h0.6L453.9,32.4L453.9,32.4z M454.7,35.5
  c1.8,0,3.3-1.6,3.3-3.4c0-1.8-1.6-3.3-3.4-3.3c-1.8,0-3.3,1.5-3.3,3.3C451.2,34,452.7,35.5,454.7,35.5
  C454.6,35.5,454.6,35.5,454.7,35.5 M451.9,32.2c0-1.5,1.3-2.7,2.8-2.6c1.5,0,2.7,1.3,2.6,2.8c0,1.5-1.2,2.6-2.7,2.6
  c-1.5,0-2.7-1.2-2.7-2.7C451.9,32.2,451.9,32.2,451.9,32.2"></path>
<path class="dte-logo-svg" d="M3.3,101.5v-1.2h0.8c0.4,0,0.8,0.1,0.8,0.6c0,0.5-0.4,0.6-0.9,0.6H3.3L3.3,101.5z M3.3,102H4l1,1.7h0.7
  l-1.1-1.7c0.6,0,1-0.4,1-1c0,0,0,0,0-0.1c0-0.8-0.5-1.1-1.4-1.1H2.7v3.9h0.6L3.3,102L3.3,102z M4,105.1c1.8,0,3.3-1.6,3.3-3.4
  c0-1.8-1.6-3.3-3.4-3.3c-1.8,0-3.3,1.5-3.3,3.3C0.6,103.5,2.1,105.1,4,105.1C4,105.1,4,105.1,4,105.1 M1.3,101.7
  c0-1.5,1.3-2.7,2.8-2.6c1.5,0,2.7,1.3,2.6,2.8c0,1.5-1.2,2.6-2.7,2.6c-1.5,0-2.7-1.2-2.7-2.7C1.3,101.8,1.3,101.7,1.3,101.7"></path>
</svg>
